<svg width="144" height="57" viewBox="0 0 144 57" fill="none" xmlns="http://www.w3.org/2000/svg">
<rect width="56.4782" height="56.4782" rx="28.2391" fill="url(#paint0_linear_2005_13450)"/>
<path fill-rule="evenodd" clip-rule="evenodd" d="M39.8621 22.2835C40.7763 22.2835 41.6496 22.6757 42.2583 23.359C42.8659 24.0433 43.154 24.9574 43.0467 25.8664L41.3685 39.8788C41.1776 41.4905 39.8089 42.708 38.1839 42.708H34.5146V33.4686H31.8036L28.7554 40.0792L25.7207 33.4686H23.0098V42.708H19.5274C17.9024 42.708 16.5337 41.4906 16.3427 39.8768L14.6646 25.8685C14.5574 24.9574 14.8453 24.0433 15.4531 23.36C16.0618 22.6757 16.9351 22.2835 17.8503 22.2835H39.8621ZM25.6938 42.708H27.4836L25.6938 39.0064V42.708ZM30.0407 42.708H31.8306V39.0064L30.0407 42.708Z" fill="#CDFF65"/>
<path d="M34.7761 28.5589C34.198 28.5589 33.7302 28.0911 33.7302 27.513V20.6993C33.7302 18.0325 31.5597 15.8621 28.8929 15.8621C26.2261 15.8621 24.0557 18.0325 24.0557 20.6993V27.5129C24.0557 28.0909 23.5878 28.5588 23.0098 28.5588C22.4317 28.5588 21.9639 28.0909 21.9639 27.5129V20.6993C21.9639 16.8783 25.0719 13.7703 28.8929 13.7703C32.7139 13.7703 35.822 16.8783 35.822 20.6993V27.5129C35.822 28.0911 35.3541 28.5589 34.7761 28.5589Z" fill="#EBF3EA"/>
<path d="M136.466 26.3672V13.7855H140.293V15.2112C140.56 14.9944 140.894 14.7693 141.294 14.5359C141.694 14.2857 142.119 14.0606 142.57 13.8605C143.02 13.6604 143.453 13.5353 143.87 13.4853V17.1372C143.47 17.1873 143.045 17.2873 142.595 17.4374C142.144 17.5708 141.719 17.7292 141.319 17.9127C140.919 18.0794 140.577 18.2378 140.293 18.3879V26.3672H136.466Z" fill="#161919"/>
<path d="M129.03 26.6673C127.613 26.6673 126.479 26.4338 125.628 25.9669C124.795 25.5 124.194 24.7913 123.828 23.8408C123.477 22.8903 123.302 21.6896 123.302 20.2388C123.302 18.7214 123.519 17.4707 123.953 16.4868C124.403 15.4863 125.062 14.7442 125.929 14.2607C126.796 13.7604 127.888 13.5103 129.205 13.5103C131.14 13.5103 132.591 13.9772 133.558 14.911C134.542 15.8448 135.034 17.3206 135.034 19.3384L134.833 21.3144H127.129C127.146 22.1149 127.313 22.7152 127.63 23.1154C127.963 23.4989 128.53 23.6907 129.33 23.6907C129.847 23.6907 130.423 23.6824 131.056 23.6657C131.707 23.6323 132.349 23.599 132.982 23.5656C133.616 23.5323 134.158 23.4989 134.608 23.4656L134.683 26.067C134.25 26.1503 133.708 26.2421 133.057 26.3421C132.407 26.4255 131.732 26.5005 131.031 26.5672C130.331 26.6339 129.664 26.6673 129.03 26.6673ZM127.104 18.9882H131.206C131.206 17.9876 131.048 17.2956 130.731 16.9121C130.414 16.5119 129.906 16.3117 129.205 16.3117C128.505 16.3117 127.98 16.5202 127.63 16.9371C127.296 17.3373 127.121 18.021 127.104 18.9882Z" fill="#161919"/>
<path d="M119.692 26.6673C118.758 26.6673 117.999 26.5422 117.416 26.2921C116.832 26.0253 116.407 25.5667 116.14 24.9164C115.89 24.2493 115.765 23.3155 115.765 22.1149V16.9371H114.414V13.7854H115.765V10.6588H119.592V13.7854H122.543V16.9371H119.592V21.1644C119.592 21.7313 119.617 22.1732 119.667 22.4901C119.734 22.8069 119.859 23.032 120.042 23.1654C120.225 23.2988 120.501 23.3655 120.868 23.3655C120.968 23.3655 121.126 23.3572 121.343 23.3405C121.56 23.3239 121.776 23.3155 121.993 23.3155C122.227 23.2988 122.402 23.2822 122.518 23.2655L122.618 26.2921C122.202 26.3755 121.701 26.4589 121.118 26.5422C120.551 26.6256 120.075 26.6673 119.692 26.6673Z" fill="#161919"/>
<path d="M108.498 26.6673C107.881 26.6673 107.247 26.6339 106.597 26.5672C105.946 26.5005 105.346 26.4255 104.796 26.3421C104.245 26.2421 103.787 26.1503 103.42 26.067L103.545 23.3155C103.979 23.3655 104.47 23.4239 105.021 23.4906C105.571 23.5573 106.113 23.6157 106.647 23.6657C107.18 23.7157 107.614 23.7407 107.947 23.7407C108.398 23.7407 108.764 23.7074 109.048 23.6407C109.331 23.574 109.54 23.4572 109.673 23.2905C109.823 23.1237 109.898 22.8903 109.898 22.5901C109.898 22.3733 109.823 22.1982 109.673 22.0648C109.54 21.9314 109.29 21.823 108.923 21.7397C108.573 21.6396 108.047 21.5395 107.347 21.4395C106.413 21.3061 105.646 21.1143 105.046 20.8642C104.445 20.5974 104.004 20.2138 103.72 19.7136C103.453 19.1966 103.32 18.5129 103.32 17.6625C103.32 16.5786 103.545 15.7364 103.995 15.1361C104.462 14.5358 105.079 14.1189 105.846 13.8855C106.613 13.6353 107.455 13.5103 108.373 13.5103C109.006 13.5103 109.64 13.5436 110.274 13.6103C110.924 13.6603 111.524 13.727 112.075 13.8104C112.625 13.8938 113.083 13.9772 113.45 14.0605L113.325 16.9121C112.908 16.8454 112.416 16.787 111.849 16.737C111.299 16.6703 110.749 16.6202 110.199 16.5869C109.665 16.5535 109.215 16.5369 108.848 16.5369C108.498 16.5369 108.189 16.5702 107.922 16.6369C107.672 16.687 107.48 16.787 107.347 16.9371C107.214 17.0705 107.147 17.2706 107.147 17.5374C107.147 17.7375 107.205 17.9043 107.322 18.0377C107.439 18.1544 107.672 18.2628 108.022 18.3628C108.373 18.4462 108.881 18.5296 109.548 18.613C110.565 18.7464 111.382 18.9548 111.999 19.2383C112.616 19.5218 113.058 19.922 113.325 20.439C113.592 20.9392 113.725 21.6229 113.725 22.4901C113.725 24.0242 113.275 25.1081 112.375 25.7418C111.474 26.3588 110.182 26.6673 108.498 26.6673Z" fill="#161919"/>
<path d="M94.458 26.6673C93.0906 26.6673 92.0651 26.3338 91.3814 25.6667C90.7144 24.9997 90.3809 23.9825 90.3809 22.6151C90.3809 21.6479 90.556 20.9059 90.9061 20.3889C91.273 19.8553 91.7983 19.4718 92.482 19.2383C93.1657 19.0049 93.9911 18.8631 94.9583 18.8131L97.7598 18.588V17.9376C97.7598 17.4374 97.6181 17.0872 97.3346 16.8871C97.0678 16.6703 96.6676 16.5619 96.1339 16.5619C95.6503 16.5619 95.1 16.5786 94.4831 16.6119C93.8661 16.6453 93.2574 16.687 92.6571 16.737C92.0568 16.787 91.5398 16.837 91.1062 16.8871L90.9812 14.2356C91.4314 14.1189 91.965 14.0105 92.582 13.9105C93.2157 13.7937 93.8744 13.702 94.5581 13.6353C95.2418 13.5519 95.8838 13.5103 96.4841 13.5103C97.568 13.5103 98.4852 13.6437 99.2356 13.9105C100.003 14.1606 100.586 14.5942 100.987 15.2112C101.387 15.8115 101.587 16.6536 101.587 17.7375V23.2405C101.637 23.4406 101.754 23.599 101.937 23.7157C102.137 23.8158 102.354 23.8908 102.587 23.9408L102.512 26.4922C102.129 26.5255 101.72 26.5506 101.287 26.5672C100.87 26.5839 100.536 26.5756 100.286 26.5422C99.8526 26.4922 99.4774 26.3921 99.1606 26.2421C98.8604 26.0753 98.6353 25.9085 98.4852 25.7418C98.2184 25.8585 97.8682 25.9919 97.4346 26.142C97.0011 26.2921 96.5258 26.4171 96.0089 26.5172C95.5086 26.6173 94.9917 26.6673 94.458 26.6673ZM95.4085 23.8908C95.692 23.8908 95.9755 23.8574 96.259 23.7907C96.5592 23.724 96.8426 23.649 97.1095 23.5656C97.3763 23.4822 97.593 23.4072 97.7598 23.3405V20.8642L95.5586 21.0643C95.0917 21.1143 94.7499 21.2644 94.5331 21.5145C94.3163 21.748 94.2079 22.0815 94.2079 22.5151C94.2079 22.932 94.308 23.2655 94.5081 23.5156C94.7082 23.7657 95.0083 23.8908 95.4085 23.8908Z" fill="#161919"/>
<path d="M70.2544 26.3671V13.7854H74.0564V14.5608C74.44 14.3274 74.9486 14.0939 75.5822 13.8604C76.2159 13.627 76.8246 13.5103 77.4082 13.5103C78.1586 13.5103 78.7673 13.6186 79.2342 13.8354C79.7178 14.0355 80.1097 14.3274 80.4098 14.7109C80.71 14.5275 81.0768 14.344 81.5104 14.1606C81.9606 13.9772 82.4442 13.8271 82.9612 13.7104C83.4781 13.577 83.9867 13.5103 84.487 13.5103C85.7377 13.5103 86.6965 13.7354 87.3635 14.1856C88.0306 14.6192 88.4891 15.3112 88.7393 16.2617C89.0061 17.1956 89.1395 18.3962 89.1395 19.8636V26.3671H85.3375V20.2388C85.3375 19.4551 85.2958 18.8131 85.2124 18.3128C85.129 17.8126 84.9623 17.4457 84.7121 17.2122C84.462 16.9621 84.1035 16.837 83.6365 16.837C83.2197 16.837 82.8028 16.8954 82.3859 17.0121C81.969 17.1289 81.6438 17.2456 81.4104 17.3623C81.5104 17.6625 81.5771 18.0794 81.6105 18.613C81.6438 19.1299 81.6605 19.6635 81.6605 20.2138V26.3671H77.8334V20.2889C77.8334 19.4718 77.7918 18.8131 77.7084 18.3128C77.625 17.8126 77.4582 17.4457 77.2081 17.2122C76.9747 16.9621 76.6245 16.837 76.1575 16.837C75.7573 16.837 75.3571 16.8954 74.9569 17.0121C74.5734 17.1122 74.2815 17.2206 74.0814 17.3373V26.3671H70.2544Z" fill="#161919"/>
<path d="M106.914 48.554C106.23 48.554 105.497 48.5123 104.713 48.429C103.929 48.3456 103.179 48.2455 102.462 48.1288C101.745 48.0121 101.136 47.9037 100.636 47.8036L100.861 44.727C101.378 44.7937 101.987 44.8687 102.687 44.9521C103.387 45.0188 104.088 45.0855 104.788 45.1522C105.488 45.2022 106.097 45.2273 106.614 45.2273C107.464 45.2273 108.081 45.0688 108.465 44.752C108.849 44.4352 109.04 43.9432 109.04 43.2762C109.04 42.9094 108.957 42.6175 108.79 42.4008C108.64 42.184 108.357 42.0089 107.94 41.8755C107.539 41.7254 106.956 41.5836 106.189 41.4502C104.805 41.2001 103.696 40.8916 102.862 40.5247C102.028 40.1412 101.428 39.6076 101.061 38.9239C100.694 38.2402 100.511 37.3397 100.511 36.2224C100.511 34.8551 100.753 33.7878 101.236 33.0207C101.736 32.2537 102.445 31.7117 103.362 31.3949C104.279 31.078 105.363 30.9196 106.614 30.9196C107.198 30.9196 107.856 30.953 108.59 31.0197C109.324 31.0864 110.041 31.1614 110.741 31.2448C111.442 31.3282 112.05 31.4199 112.567 31.5199L112.392 34.6466C111.892 34.5799 111.308 34.5215 110.641 34.4715C109.974 34.4048 109.307 34.3548 108.64 34.3214C107.99 34.2714 107.423 34.2464 106.939 34.2464C106.089 34.2464 105.463 34.3715 105.063 34.6216C104.68 34.8717 104.488 35.2719 104.488 35.8222C104.488 36.2391 104.571 36.5643 104.738 36.7978C104.921 37.0145 105.222 37.198 105.638 37.3481C106.072 37.4981 106.672 37.6565 107.439 37.8233C108.473 38.0568 109.34 38.2986 110.041 38.5487C110.758 38.7988 111.333 39.1073 111.767 39.4742C112.217 39.8244 112.534 40.283 112.717 40.8499C112.917 41.4169 113.017 42.1339 113.017 43.0011C113.017 44.3351 112.776 45.4107 112.292 46.2278C111.825 47.0449 111.133 47.6369 110.216 48.0037C109.315 48.3706 108.215 48.554 106.914 48.554Z" fill="#4F56D3"/>
<path d="M91.9052 48.554C90.0875 48.554 88.6284 48.2372 87.5278 47.6035C86.4439 46.9699 85.6602 46.0027 85.1766 44.702C84.693 43.4013 84.4512 41.7671 84.4512 39.7994C84.4512 37.815 84.693 36.1724 85.1766 34.8717C85.6602 33.5544 86.4439 32.5705 87.5278 31.9202C88.6284 31.2698 90.0875 30.9446 91.9052 30.9446C93.7228 30.9446 95.1736 31.2698 96.2575 31.9202C97.3414 32.5705 98.1251 33.5544 98.6087 34.8717C99.0923 36.1724 99.3341 37.815 99.3341 39.7994C99.3341 41.8004 99.0923 43.4513 98.6087 44.752C98.1251 46.036 97.3414 46.9949 96.2575 47.6286C95.1902 48.2456 93.7395 48.554 91.9052 48.554ZM91.9052 45.2523C92.8723 45.2523 93.5977 45.0522 94.0813 44.652C94.5649 44.2518 94.8901 43.6431 95.0568 42.826C95.2236 42.0089 95.307 41 95.307 39.7994C95.307 38.5987 95.2236 37.5815 95.0568 36.7477C94.8901 35.914 94.5649 35.2886 94.0813 34.8717C93.5977 34.4382 92.8723 34.2214 91.9052 34.2214C90.9546 34.2214 90.2293 34.4382 89.729 34.8717C89.2454 35.2886 88.9119 35.914 88.7285 36.7477C88.5617 37.5648 88.4783 38.5821 88.4783 39.7994C88.4783 40.9833 88.5617 41.9839 88.7285 42.801C88.9119 43.6181 89.2454 44.2351 89.729 44.652C90.2126 45.0522 90.938 45.2523 91.9052 45.2523Z" fill="#4F56D3"/>
<path d="M70.4297 48.2539V31.2448H76.8831C78.3673 31.2448 79.5929 31.4366 80.5601 31.8201C81.544 32.2037 82.2777 32.8373 82.7613 33.7211C83.2615 34.5883 83.5117 35.7889 83.5117 37.3231C83.5117 38.8239 83.2615 40.0412 82.7613 40.975C82.2777 41.8922 81.544 42.5592 80.5601 42.9761C79.5929 43.393 78.3673 43.6014 76.8831 43.6014H74.3818V48.2539H70.4297ZM74.3818 40.3997H76.7581C77.7253 40.3997 78.4173 40.1496 78.8342 39.6493C79.2677 39.1324 79.4845 38.3569 79.4845 37.3231C79.4845 36.2725 79.2761 35.5304 78.8592 35.0969C78.4423 34.6633 77.7419 34.4465 76.7581 34.4465H74.3818V40.3997Z" fill="#4F56D3"/>
<defs>
<linearGradient id="paint0_linear_2005_13450" x1="28.2391" y1="0" x2="47.7893" y2="67.8825" gradientUnits="userSpaceOnUse">
<stop stop-color="#161919"/>
<stop offset="1" stop-color="#5B5C7A"/>
</linearGradient>
</defs>
</svg>
