<svg width="57" height="57" viewBox="0 0 57 57" fill="none" xmlns="http://www.w3.org/2000/svg">
<rect width="56.4782" height="56.4782" rx="28.2391" fill="url(#paint0_linear_2014_13465)"/>
<path fill-rule="evenodd" clip-rule="evenodd" d="M39.862 22.2835C40.7761 22.2835 41.6495 22.6757 42.2582 23.359C42.8658 24.0433 43.1539 24.9574 43.0466 25.8664L41.3684 39.8788C41.1774 41.4905 39.8088 42.708 38.1838 42.708H34.5145V33.4686H31.8035L28.7553 40.0792L25.7206 33.4686H23.0096V42.708H19.5272C17.9022 42.708 16.5336 41.4906 16.3426 39.8768L14.6645 25.8685C14.5573 24.9574 14.8452 24.0433 15.453 23.36C16.0617 22.6757 16.935 22.2835 17.8501 22.2835H39.862ZM25.6936 42.708H27.4835L25.6936 39.0064V42.708ZM30.0406 42.708H31.8305V39.0064L30.0406 42.708Z" fill="#CDFF65"/>
<path d="M34.7759 28.5589C34.1979 28.5589 33.73 28.0911 33.73 27.513V20.6993C33.73 18.0325 31.5596 15.8621 28.8928 15.8621C26.226 15.8621 24.0555 18.0325 24.0555 20.6993V27.5129C24.0555 28.0909 23.5877 28.5588 23.0096 28.5588C22.4316 28.5588 21.9637 28.0909 21.9637 27.5129V20.6993C21.9637 16.8783 25.0718 13.7703 28.8928 13.7703C32.7137 13.7703 35.8218 16.8783 35.8218 20.6993V27.5129C35.8218 28.0911 35.354 28.5589 34.7759 28.5589Z" fill="#EBF3EA"/>
<defs>
<linearGradient id="paint0_linear_2014_13465" x1="28.2391" y1="0" x2="47.7893" y2="67.8825" gradientUnits="userSpaceOnUse">
<stop stop-color="#161919"/>
<stop offset="1" stop-color="#5B5C7A"/>
</linearGradient>
</defs>
</svg>
